<svg width="118" height="30" viewBox="0 0 118 30" fill="none" xmlns="http://www.w3.org/2000/svg">
<circle cx="59" cy="15" r="15" fill="white"/>
<path d="M103 -6.55671e-07C104.97 -7.41775e-07 106.92 0.387986 108.74 1.14181C110.56 1.89563 112.214 3.00052 113.607 4.3934C114.999 5.78628 116.104 7.43986 116.858 9.25975C117.612 11.0796 118 13.0302 118 15C118 16.9698 117.612 18.9204 116.858 20.7403C116.104 22.5601 114.999 24.2137 113.607 25.6066C112.214 26.9995 110.56 28.1044 108.74 28.8582C106.92 29.612 104.97 30 103 30L103 25.35C104.359 25.35 105.705 25.0823 106.961 24.5622C108.216 24.042 109.357 23.2796 110.319 22.3186C111.28 21.3575 112.042 20.2165 112.562 18.9608C113.082 17.7051 113.35 16.3592 113.35 15C113.35 13.6408 113.082 12.2949 112.562 11.0392C112.042 9.78351 111.28 8.64253 110.319 7.68144C109.357 6.72036 108.216 5.95798 106.961 5.43785C105.705 4.91771 104.359 4.65 103 4.65L103 -6.55671e-07Z" fill="white"/>
<path d="M37 30C35.0302 30 33.0796 29.612 31.2597 28.8582C29.4399 28.1044 27.7863 26.9995 26.3934 25.6066C25.0005 24.2137 23.8956 22.5601 23.1418 20.7403C22.388 18.9204 22 16.9698 22 15C22 13.0302 22.388 11.0796 23.1418 9.25975C23.8956 7.43986 25.0005 5.78628 26.3934 4.3934C27.7863 3.00052 29.4399 1.89563 31.2598 1.14181C33.0796 0.387986 35.0302 3.01554e-08 37 1.78873e-07L37 15L37 30Z" fill="white"/>
<path d="M81 -6.55671e-07C82.9698 -7.41775e-07 84.9204 0.387986 86.7403 1.14181C88.5601 1.89563 90.2137 3.00052 91.6066 4.3934C92.9995 5.78628 94.1044 7.43986 94.8582 9.25975C95.612 11.0796 96 13.0302 96 15C96 16.9698 95.612 18.9204 94.8582 20.7403C94.1044 22.5601 92.9995 24.2137 91.6066 25.6066C90.2137 26.9995 88.5601 28.1044 86.7402 28.8582C84.9204 29.612 82.9698 30 81 30L81 15L81 -6.55671e-07Z" fill="white"/>
<path d="M15 30C13.0302 30 11.0796 29.612 9.25975 28.8582C7.43987 28.1044 5.78628 26.9995 4.3934 25.6066C3.00052 24.2137 1.89563 22.5601 1.14181 20.7403C0.387987 18.9204 2.02363e-07 16.9698 1.78873e-07 15C1.55383e-07 13.0302 0.387987 11.0796 1.14181 9.25975C1.89563 7.43986 3.00052 5.78628 4.3934 4.3934C5.78628 3.00052 7.43987 1.89563 9.25975 1.14181C11.0796 0.387986 13.0302 3.01554e-08 15 1.78873e-07L15 4.65C13.6408 4.65 12.2949 4.91771 11.0392 5.43785C9.78351 5.95798 8.64253 6.72036 7.68144 7.68144C6.72036 8.64253 5.95798 9.78351 5.43785 11.0392C4.91771 12.2949 4.65 13.6408 4.65 15C4.65 16.3592 4.91771 17.7051 5.43785 18.9608C5.95798 20.2165 6.72036 21.3575 7.68144 22.3186C8.64253 23.2796 9.78351 24.042 11.0392 24.5622C12.2949 25.0823 13.6408 25.35 15 25.35L15 30Z" fill="white"/>
</svg>
