<svg width="74" height="74" viewBox="0 0 74 74" fill="none" xmlns="http://www.w3.org/2000/svg">
<rect width="74" height="74" rx="37" fill="url(#paint0_linear_131_5063)"/>
<circle cx="37.0002" cy="36.6271" r="7.62712" fill="white"/>
<path d="M59.3727 29C60.3743 29 61.3661 29.1973 62.2915 29.5806C63.2169 29.9639 64.0577 30.5257 64.7659 31.2339C65.4742 31.9421 66.036 32.783 66.4193 33.7083C66.8026 34.6337 66.9998 35.6255 66.9998 36.6271C66.9998 37.6287 66.8026 38.6205 66.4193 39.5459C66.036 40.4712 65.4742 41.312 64.7659 42.0203C64.0577 42.7285 63.2169 43.2903 62.2915 43.6736C61.3661 44.0569 60.3743 44.2542 59.3727 44.2542L59.3727 41.8898C60.0638 41.8898 60.7482 41.7537 61.3867 41.4892C62.0252 41.2247 62.6053 40.8371 63.094 40.3484C63.5827 39.8597 63.9704 39.2795 64.2348 38.641C64.4993 38.0025 64.6354 37.3182 64.6354 36.6271C64.6354 35.936 64.4993 35.2516 64.2348 34.6131C63.9704 33.9746 63.5827 33.3945 63.094 32.9058C62.6053 32.4171 62.0252 32.0295 61.3867 31.765C60.7482 31.5005 60.0638 31.3644 59.3727 31.3644L59.3727 29Z" fill="white"/>
<path d="M25.8138 44.2542C24.8122 44.2542 23.8204 44.057 22.895 43.6737C21.9697 43.2904 21.1289 42.7285 20.4206 42.0203C19.7124 41.3121 19.1506 40.4713 18.7673 39.5459C18.384 38.6205 18.1867 37.6287 18.1867 36.6271C18.1867 35.6255 18.384 34.6337 18.7673 33.7083C19.1506 32.783 19.7124 31.9422 20.4206 31.2339C21.1289 30.5257 21.9697 29.9639 22.895 29.5806C23.8204 29.1973 24.8122 29 25.8138 29L25.8138 36.6271L25.8138 44.2542Z" fill="white"/>
<path d="M48.1862 29C49.1878 29 50.1796 29.1973 51.105 29.5806C52.0303 29.9639 52.8711 30.5257 53.5794 31.2339C54.2876 31.9421 54.8494 32.783 55.2327 33.7083C55.616 34.6337 55.8133 35.6255 55.8133 36.6271C55.8133 37.6287 55.616 38.6205 55.2327 39.5459C54.8494 40.4712 54.2876 41.312 53.5794 42.0203C52.8711 42.7285 52.0303 43.2903 51.105 43.6736C50.1796 44.0569 49.1878 44.2542 48.1862 44.2542L48.1862 36.6271L48.1862 29Z" fill="white"/>
<path d="M14.6273 44.2542C13.6257 44.2542 12.6339 44.057 11.7085 43.6737C10.7831 43.2904 9.94233 42.7285 9.23409 42.0203C8.52585 41.3121 7.96404 40.4713 7.58074 39.5459C7.19744 38.6205 7.00016 37.6287 7.00016 36.6271C7.00016 35.6255 7.19744 34.6337 7.58074 33.7083C7.96404 32.783 8.52585 31.9422 9.23409 31.2339C9.94233 30.5257 10.7831 29.9639 11.7085 29.5806C12.6339 29.1973 13.6257 29 14.6273 29L14.6273 31.3644C13.9362 31.3644 13.2518 31.5005 12.6133 31.765C11.9748 32.0295 11.3947 32.4171 10.906 32.9058C10.4173 33.3945 10.0296 33.9747 9.76516 34.6132C9.50069 35.2517 9.36456 35.936 9.36456 36.6271C9.36456 37.3182 9.50069 38.0026 9.76516 38.6411C10.0296 39.2796 10.4173 39.8597 10.906 40.3484C11.3947 40.8371 11.9748 41.2248 12.6133 41.4892C13.2518 41.7537 13.9362 41.8898 14.6273 41.8898L14.6273 44.2542Z" fill="white"/>
<defs>
<linearGradient id="paint0_linear_131_5063" x1="37" y1="0" x2="37" y2="74" gradientUnits="userSpaceOnUse">
<stop stopColor="#FF9591"/>
<stop offset="1" stopColor="#F1686E"/>
</linearGradient>
</defs>
</svg>
